{"title":"World War Z 2013 CAMRip XviD AC3 - TODE","uid":8634205,"size":734146577,"categoryP":"video","categoryS":"movies","magnet":"?xt=urn:btih:8c5c828c1ceb80c58109d1cb8c8009cc48c7f8e7&amp;dn=World+War+Z+2013+CAMRip+XviD+AC3+-+TODE&amp;tr=udp%3A%2F%2Ftracker.openbittorrent.com%3A80&amp;tr=udp%3A%2F%2Fopen.demonii.com%3A1337&amp;tr=udp%3A%2F%2Ftracker.coppersurfer.tk%3A6969&amp;tr=udp%3A%2F%2Fexodus.desync.com%3A6969","seeders":3,"leechers":0,"uploader":"xxxlavalxxx","files":-1,"time":1372706664,"description":"\n &lt;a href=&quot;\nhttp://www.imdb.com/title/tt0816711/&quot; rel=&quot;nofollow&quot; target=&quot;_NEW&quot;&gt;\nhttp://www.imdb.com/title/tt0816711/&lt;/a&gt;\n\n\n\nUnited Nations employee Gerry Lane traverses the world in a race against time to stop the Zombie pandemic that is toppling armies and governments, and threatening to destroy humanity itself. \n\n\n\nDirector:\n Marc Forster \n\nWriters:\n Matthew Michael Carnahan (screenplay), Drew Goddard (screenplay)\n\nStars:\n Brad Pitt, Mireille Enos, Daniella Kertesz\n\nGenres:\n  Action |  Drama |  Horror |  Sci-Fi |  Thriller \n\n\nThanks : THC\n\n\n\n\nFormat                                   : AVI\nFormat/Info                              : Audio Video Interleave\nFile size                                : 700 MiB\nDuration                                 : 1h 48mn\nOverall bit rate                         : 901 Kbps\nWriting application                      : Lavf55.3.100\n\nVideo\nID                                       : 0\nFormat                                   : MPEG-4 Visual\nFormat profile                           : Simple@L3\nFormat settings, BVOP                    : No\nFormat settings, QPel                    : No\nFormat settings, GMC                     : No warppoints\nFormat settings, Matrix                  : Default (H.263)\nCodec ID                                 : XVID\nCodec ID/Hint                            : XviD\nDuration                                 : 1h 48mn\nBit rate                                 : 810 Kbps\nWidth                                    : 640 pixels\nHeight                                   : 270 pixels\nDisplay aspect ratio                     : 2.35:1\nOriginal display aspect ratio            : 2.40:1\nFrame rate                               : 24.000 fps\nColor space                              : YUV\nChroma subsampling                       : 4:2:0\nBit depth                                : 8 bits\nScan type                                : Progressive\nCompression mode                         : Lossy\nBits/(Pixel*Frame)                       : 0.195\nStream size                              : 630 MiB (90%)\nWriting library                          : XviD 64\n\nAudio\nID                                       : 1\nFormat                                   : AC-3\nFormat/Info                              : Audio Coding 3\nMode extension                           : CM (complete main)\nFormat settings, Endianness              : Big\nCodec ID                                 : 2000\nDuration                                 : 1h 48mn\nBit rate mode                            : Constant\nBit rate                                 : 80.0 Kbps\nChannel(s)                               : 2 channels\nChannel positions                        : Front: L R\nSampling rate                            : 48.0 KHz\nBit depth                                : 16 bits\nCompression mode                         : Lossy\nStream size                              : 62.2 MiB (9%)\nAlignment                                : Aligned on interleaves\nInterleave, duration                     : 32 ms (0.77 video frame)\n\n\n\n\n//bayimg.com/PaNKmaaEI\n//bayimg.com/paNKnAAEI\n//bayimg.com/pAnKoaAEi\n//bayimg.com/paNKPaaei\n","torrent":{"xt":"urn:btih:8c5c828c1ceb80c58109d1cb8c8009cc48c7f8e7","amp;dn":"World+War+Z+2013+CAMRip+XviD+AC3+-+TODE","amp;tr":["udp%3A%2F%2Ftracker.openbittorrent.com%3A80","udp%3A%2F%2Fopen.demonii.com%3A1337","udp%3A%2F%2Ftracker.coppersurfer.tk%3A6969","udp%3A%2F%2Fexodus.desync.com%3A6969"],"infoHash":"8c5c828c1ceb80c58109d1cb8c8009cc48c7f8e7","infoHashBuffer":{"type":"Buffer","data":[140,92,130,140,28,235,128,197,129,9,209,203,140,128,9,204,72,199,248,231]},"announce":[],"urlList":[]}}